<svg width="26" height="25" viewBox="0 0 26 25" fill="none" xmlns="http://www.w3.org/2000/svg">
<path d="M13 21C8.3 21 4.5 17.2 4.5 12.5C4.5 7.8 8.3 4 13 4C17.7 4 21.5 7.8 21.5 12.5C21.5 17.2 17.7 21 13 21ZM13 5C8.85 5 5.5 8.35 5.5 12.5C5.5 16.65 8.85 20 13 20C17.15 20 20.5 16.65 20.5 12.5C20.5 8.35 17.15 5 13 5Z" fill="#DD415B"/>
<path d="M13.0004 17.1999L8.15039 12.3499L8.85039 11.6499L13.0004 15.7999L17.1504 11.6499L17.8504 12.3499L13.0004 17.1999Z" fill="#DD415B"/>
<path d="M12.5 8H13.5V16.5H12.5V8Z" fill="#DD415B"/>
</svg>
