<svg width="1920" height="1090" viewBox="0 0 1920 1090" fill="none" xmlns="http://www.w3.org/2000/svg">
<path opacity="0.5" d="M975 185.557L1102.73 3L1197 360L975 185.557Z" fill="#E48659"/>
<path opacity="0.5" d="M1387.4 285.844L1198 361L1159 212.719L1474.7 166L1495 361L1387.4 285.844Z" fill="#DD415B"/>
<path opacity="0.5" d="M1297 29.4143L1534.28 142L1731 0H1375.08L1297 29.4143Z" fill="#DD415B"/>
<path opacity="0.5" d="M1150 86L1225.5 0H1373.5L1150 86Z" fill="#F36A81"/>
<path d="M119.295 921.306L482 1089.29L-8 1090L119.295 921.306Z" fill="#ECBD2C" fill-opacity="0.5"/>
<path d="M210.731 800.146C84.2721 967.671 48.4643 1014.36 -6.92773 1089.29L-6.92773 651.109L210.731 800.146Z" fill="#E48659" fill-opacity="0.5"/>
<path d="M1920 884.5L1764 474.5L1920 402V884.5Z" fill="#F36A81" fill-opacity="0.5"/>
<path d="M1731 855L1399 848L1467.99 993.238L1920 1090L1731 855Z" fill="#F36A81" fill-opacity="0.5"/>
<path d="M1764 474.5L1731 855.195L1920 1090V884.5L1764 474.5Z" fill="#DD415B" fill-opacity="0.5"/>
<path d="M714.452 1034.96L1140.91 932.176L1193.06 1096.11L714.452 1034.96Z" fill="#E48659" fill-opacity="0.5"/>
<path d="M767.664 851.226L816.678 522.789L663.868 572.82L510.609 1008.92L767.664 851.226Z" fill="#E48659" fill-opacity="0.5"/>
<path d="M1140.91 932.176L767.47 851.201L510.608 1008.92L714.451 1034.96L1140.91 932.176Z" fill="#DD415B" fill-opacity="0.5"/>
</svg>
