<svg width="189" height="189" viewBox="0 0 189 189" fill="none" xmlns="http://www.w3.org/2000/svg">
<path d="M94.5006 188.333C146.507 188.333 188.667 146.173 188.667 94.1666C188.667 42.1598 146.507 0 94.5006 0C42.4938 0 0.333984 42.1598 0.333984 94.1666C0.333984 146.173 42.4938 188.333 94.5006 188.333Z" fill="url(#paint0_linear_104_69)"/>
<path d="M156.271 63.4143L137.08 45L79.4502 104.461L50.7483 77.1532L32.334 96.3443L60.9371 123.558L80.133 141.874L80.1612 141.846L80.1895 141.874L98.6838 122.758L156.271 63.4143Z" fill="#ECBD2C"/>
<path d="M80.5581 142.384L99.0807 123.297L79.8471 105L61.334 124.097L80.5581 142.384Z" fill="white"/>
<defs>
<linearGradient id="paint0_linear_104_69" x1="94.5006" y1="0" x2="94.5006" y2="188.333" gradientUnits="userSpaceOnUse">
<stop stop-color="#F36A81"/>
<stop offset="1" stop-color="#E48659"/>
</linearGradient>
</defs>
</svg>
